<svg
	xmlns="http://www.w3.org/2000/svg"
	xmlns:xlink="http://www.w3.org/1999/xlink">

	<symbol
		xmlns="http://www.w3.org/2000/svg"
		viewBox="0 0 1024 1024" id="user">

		<title></title>
		<g id="user_icomoon-ignore"></g>

		<path d="M972.8 1024h-938.667v-167.253c0-40.96 23.893-81.92 61.44-109.227l245.76-143.36 44.373 71.68-242.347 146.773c-6.827 3.413-20.48 17.067-20.48 37.547v81.92h764.587v-81.92c0-13.653-6.827-27.307-20.48-34.133l-245.76-146.773 44.373-71.68 242.347 146.773c37.547 17.067 64.853 61.44 64.853 109.227v160.427z"></path>
		<path d="M505.173 723.627c-163.84 0-300.373-133.12-300.373-300.373v-129.707c0-163.84 133.12-300.373 300.373-300.373 163.84 0 300.373 133.12 300.373 300.373v129.707c-3.413 167.253-136.533 300.373-300.373 300.373zM505.173 85.333c-116.053 0-211.627 95.573-211.627 211.627v129.707c0 116.053 95.573 211.627 211.627 211.627s211.627-95.573 211.627-211.627v-129.707c0-116.053-95.573-211.627-211.627-211.627z"></path>
	</symbol>

	<use xlink:href="#user"></use>
</svg>
